<?xml version="1.0" encoding="UTF-8" standalone="no"?>
<!-- Created with Inkscape (http://www.inkscape.org/) -->

<svg
   xmlns:dc="http://purl.org/dc/elements/1.1/"
   xmlns:cc="http://creativecommons.org/ns#"
   xmlns:rdf="http://www.w3.org/1999/02/22-rdf-syntax-ns#"
   xmlns:svg="http://www.w3.org/2000/svg"
   xmlns="http://www.w3.org/2000/svg"
   xmlns:sodipodi="http://sodipodi.sourceforge.net/DTD/sodipodi-0.dtd"
   xmlns:inkscape="http://www.inkscape.org/namespaces/inkscape"
   width="149.88188"
   height="116.92913"
   id="svg2"
   version="1.1"
   inkscape:version="0.48.3.1 r9886"
   sodipodi:docname="lcd.ps">
  <defs
     id="defs4" />
  <sodipodi:namedview
     id="base"
     pagecolor="#ffffff"
     bordercolor="#666666"
     borderopacity="1.0"
     inkscape:pageopacity="0.0"
     inkscape:pageshadow="2"
     inkscape:zoom="4"
     inkscape:cx="118.0321"
     inkscape:cy="55.986887"
     inkscape:document-units="mm"
     inkscape:current-layer="svg2"
     showgrid="false"
     units="mm"
     inkscape:window-width="1920"
     inkscape:window-height="902"
     inkscape:window-x="0"
     inkscape:window-y="24"
     inkscape:window-maximized="1" />
  <metadata
     id="metadata7">
    <rdf:RDF>
      <cc:Work
         rdf:about="">
        <dc:format>image/svg+xml</dc:format>
        <dc:type
           rdf:resource="http://purl.org/dc/dcmitype/StillImage" />
        <dc:title></dc:title>
      </cc:Work>
    </rdf:RDF>
  </metadata>
  <path
     style="fill:#000000"
     d="m 135.05639,117.74574 c -1.64189,-0.2722 -2.78598,-1.88064 -2.48798,-3.49785 0.53776,-2.9187 4.416,-3.45234 5.72758,-0.78812 0.23249,0.47223 0.24746,0.55061 0.24746,1.29397 0,0.74336 -0.015,0.82172 -0.24746,1.29395 -0.45198,0.91816 -1.28875,1.54446 -2.2779,1.70496 -0.26235,0.0427 -0.49393,0.0737 -0.51455,0.0692 -0.0205,-0.005 -0.22186,-0.0387 -0.44715,-0.0762 z M 5.7997857,93.586812 l 0,-6.154924 2.5144931,0 2.5145382,0 0,6.154924 0,6.154934 -2.5145382,0 -2.5144931,0 0,-6.154934 z m 133.6068643,-0.300247 0,-5.704559 2.66465,0 2.66462,0 0,5.704559 0,5.704569 -2.66462,0 -2.66465,0 0,-5.704569 z M 2.0634681,87.652215 C 1.576337,87.556412 1.0057578,87.210538 0.72186066,86.83873 0.18661443,86.137753 0.20779536,86.478506 0.20779536,78.574792 l 0,-7.093154 0.17324143,-0.382722 c 0.63823261,-1.40989 2.46952971,-1.779835 3.56750351,-0.720728 0.4251848,0.41014 0.6464951,0.90073 0.7286654,1.615245 0.091033,0.79171 0.090973,12.64056 -4.61e-5,13.505816 -0.080942,0.76888 -0.3193673,1.280586 -0.780797,1.675563 -0.4578711,0.391902 -1.2361568,0.594611 -1.8328945,0.477403 z M 147.08714,87.158859 c -0.43104,-0.152724 -0.96907,-0.646422 -1.19897,-1.100144 -0.27695,-0.546489 -0.29945,-1.21634 -0.28331,-8.428657 0.0122,-5.427361 0.0293,-6.289189 0.1323,-6.642809 0.50111,-1.7211 2.65948,-2.178139 3.82977,-0.81096 0.56273,0.657435 0.53187,0.237705 0.55689,7.572852 0.0232,6.892148 -0.007,7.788549 -0.28067,8.325518 -0.49296,0.966309 -1.72304,1.450216 -2.75601,1.0842 z M 5.7997857,47.199699 l 0,-6.154914 2.5895843,0 2.589545,0 0,6.154914 0,6.154925 -2.589545,0 -2.5895843,0 0,-6.154925 z m 133.9071043,-0.375296 0,-6.229983 2.28935,0 2.2893,0 0,6.229983 0,6.229994 -2.2893,0 -2.28935,0 0,-6.229994 z M 14.185105,26.629442 c -0.93957,-0.15578 -1.807472,-0.814588 -2.245664,-1.704625 -0.232455,-0.472222 -0.24743,-0.550608 -0.24743,-1.293955 0,-0.743356 0.01505,-0.821743 0.24743,-1.293954 1.15545,-2.347058 4.391531,-2.302353 5.518308,0.07626 0.216522,0.457059 0.23907,0.571882 0.23907,1.217722 0,0.644878 -0.02272,0.761014 -0.237565,1.214446 -0.618324,1.305208 -1.911735,2.010013 -3.274149,1.784134 z M 1.3910891,18.442959 C 0.86789339,18.241862 0.37683789,17.742694 0.16200824,17.193608 L -0.00648515,16.762865 -0.01199684,9.4820426 C -0.01851066,1.0898633 -0.06956895,1.7134659 0.68886668,0.9604989 1.3149566,0.3389306 2.0232178,0.15176363 2.8301713,0.39462873 3.5893785,0.62311333 4.122843,1.1629783 4.3510019,1.933713 4.4622989,2.3098307 4.4735267,3.0598415 4.4638502,9.4802288 4.4579402,13.401114 4.4309902,16.711265 4.4040832,16.83611 4.2543066,17.529552 3.614704,18.263057 2.9673871,18.483605 2.5003866,18.642743 1.8683631,18.626448 1.3910007,18.443015 z M 147.0097,17.97221 c -0.42742,-0.139736 -0.91253,-0.508739 -1.16703,-0.887673 -0.45134,-0.671985 -0.43838,-0.413607 -0.41414,-8.249657 0.0205,-6.6732536 0.0315,-7.1826841 0.15671,-7.5068717 0.18338,-0.4737648 0.5563,-0.88912571 1.03777,-1.15580131 0.35807,-0.19832063 0.47233,-0.22269232 1.04027,-0.22189062 0.51579,8.9189e-4 0.69868,0.0331704 0.95491,0.16934918 0.49598,0.26361912 0.82255,0.59168493 1.04991,1.05460675 l 0.20942,0.4264645 0,7.393411 0,7.3934112 -0.18446,0.372129 c -0.23678,0.477643 -0.67662,0.915743 -1.11327,1.108903 -0.43363,0.191796 -1.15476,0.239397 -1.57009,0.103619 z m -87.091638,-8.4526378 0,-5.7045691 0.93825,0 0.93824,0 0,5.7045691 0,5.7045588 -0.93824,0 -0.93825,0 0,-5.7045588 z m 3.527832,0 0,-5.7045691 0.900721,0 0.90072,0 0,5.7045691 0,5.7045588 -0.90072,0 -0.900721,0 0,-5.7045588 z m 7.130714,-0.037479 0,-5.7420987 0.90072,0 0.900721,0 0,5.7420987 0,5.7420888 -0.900721,0 -0.90072,0 0,-5.7420888 z m -3.527842,-0.075059 0,-5.7420987 0.90073,0 0.90072,0 0,5.7420987 0,5.7420888 -0.90072,0 -0.90073,0 0,-5.7420888 z m 21.242013,-0.037479 0,-5.7796283 0.93824,0 0.93825,0 0,5.7796283 0,5.7796178 -0.93825,0 -0.93824,0 0,-5.7796178 z m -14.1113,-0.1501284 0,-5.5544407 0.900741,0 0.90071,0 0,5.5544407 0,5.5544502 -0.90071,0 -0.900741,0 0,-5.5544502 z m 3.527793,0 0,-5.5544407 0.90072,0 0.90072,0 0,5.5544407 0,5.5544502 -0.90072,0 -0.90072,0 0,-5.5544502 z m 3.527842,0 0,-5.5544407 0.90072,0 0.900711,0 0,5.5544407 0,5.5544502 -0.900711,0 -0.90072,0 0,-5.5544502 z m 3.452783,-0.037479 0,-5.5919702 0.93824,0 0.93825,0 0,5.5919702 0,5.5919802 -0.93825,0 -0.93824,0 0,-5.5919802 z"
     id="path3180"
     inkscape:connector-curvature="0" />
</svg>
